<?xml version="1.0" encoding="iso-8859-1"?>
<!-- Generator: Adobe Illustrator 19.1.0, SVG Export Plug-In . SVG Version: 6.00 Build 0)  -->
<svg version="1.1" id="Capa_1" xmlns="http://www.w3.org/2000/svg" xmlns:xlink="http://www.w3.org/1999/xlink" x="0px" y="0px"
	 viewBox="0 0 485.963 485.963" style="enable-background:new 0 0 485.963 485.963;" xml:space="preserve">
<g>
	<g>
		<path d="M449.733,119.163l-197.9-117.5c-3.7-2.2-8.3-2.2-12-0.1l-200.6,112.6c-3.7,2.1-6.1,6-6.1,10.3l-2.8,230.1
			c-0.1,4.3,2.2,8.2,5.8,10.4l198.9,119.3c1.9,1.1,4,1.7,6.2,1.7c2,0,4-0.5,5.9-1.5l200.7-112.6c3.8-2.1,6.1-6.1,6.1-10.4l1.7-231.9
			C455.633,125.263,453.433,121.263,449.733,119.163z M230.933,453.863l-176.6-105.9l2.5-201.8l174.1,102.8V453.863z
			 M243.133,228.263l-174.6-103l177-99.4l174.4,103.5L243.133,228.263z M429.933,354.263l-175,98.2v-203.4l176.5-98.7
			L429.933,354.263z"/>
		
		
		
		
	</g>
</g>
</svg>
